<svg width="102" height="28" viewBox="0 0 102 28" fill="none" xmlns="http://www.w3.org/2000/svg">
<path d="M100.656 6.87604C100.169 5.85229 99.4699 5.08521 98.5618 4.57479C97.6538 4.06292 96.6019 3.80771 95.4046 3.80771C94.0316 3.80771 92.8751 4.22479 91.9322 5.0575C91.2478 5.65979 90.732 6.45458 90.3819 7.43896C90.0564 6.49104 89.561 5.70646 88.8897 5.08813C87.9584 4.23354 86.7728 3.80479 85.333 3.80479C84.4903 3.80479 83.7144 3.98271 83.0069 4.33854C82.2978 4.69438 81.6963 5.20625 81.1965 5.87417C80.919 6.24458 80.6866 6.65729 80.4933 7.11083L80.38 4.20583H75.5621V22.1229H80.9147V12.18C80.9147 11.3152 81.0207 10.5627 81.2314 9.92979C81.4392 9.29542 81.7457 8.81854 82.1453 8.49479C82.5448 8.1725 83.0199 8.01063 83.575 8.01063C84.483 8.01063 85.1267 8.35625 85.503 9.04604C85.8793 9.73583 86.0682 10.7815 86.0682 12.1815V22.1244H90.8556V12.1815C90.8556 11.3167 90.9602 10.5642 91.1708 9.93125C91.3786 9.29688 91.6852 8.82 92.0847 8.49625C92.4843 8.17396 92.9594 8.01208 93.5144 8.01208C94.4007 8.01208 95.0443 8.35333 95.4439 9.03146C95.8434 9.7125 96.0425 10.7392 96.0425 12.1188V22.1273H101.395V10.6167C101.395 9.14813 101.151 7.90271 100.664 6.88042H100.656V6.87604ZM65.9002 17.2988C66.4218 16.6206 66.6804 15.6056 66.6804 14.245H66.6789V4.20292H72.03V22.1215H67.1758L67.0843 19.2165C66.7719 19.9821 66.3506 20.6179 65.813 21.121C64.8148 22.0558 63.452 22.5225 61.7245 22.5225C59.8851 22.5225 58.4438 21.9319 57.4035 20.7535L57.4064 20.7565C56.3632 19.5767 55.843 17.9098 55.843 15.7515V4.20729H61.1956V14.4813C61.1956 15.8171 61.3947 16.7898 61.7942 17.3994C62.1938 18.0119 62.8156 18.3167 63.6569 18.3167C64.6318 18.3167 65.3786 17.9783 65.8987 17.2988H65.9002ZM43.483 0.00145837H48.8356V4.20438H53.5227V8.14188H48.8356V15.9163C48.8356 16.7621 49.0129 17.3513 49.3674 17.6852C49.7219 18.0192 50.2755 18.1854 51.0295 18.1854H53.5213V22.1229H48.9664C47.0601 22.1229 45.6682 21.684 44.7936 20.806C43.9189 19.9281 43.4816 18.534 43.4816 16.6177V8.14188H40.5569V4.20438H43.4816V0H43.483V0.00145837ZM33.0932 17.0683L33.0903 17.064C32.4583 18.0119 31.5793 18.4829 30.4489 18.4829C29.6963 18.4829 29.0599 18.2831 28.5383 17.8821C28.0152 17.481 27.6113 16.8802 27.3236 16.0796C27.036 15.279 26.8907 14.2975 26.8907 13.144C26.8907 11.9904 27.036 11.0148 27.3236 10.2258C27.6113 9.43833 28.0225 8.84333 28.5543 8.44229C29.086 8.04125 29.7181 7.84146 30.4474 7.84146C31.5546 7.84146 32.4307 8.31396 33.0729 9.26042C33.715 10.2054 34.0376 11.531 34.0376 13.1804C34.0376 14.8298 33.7223 16.1233 33.0917 17.0683H33.0932ZM36.1371 5.005C35.0067 4.20438 33.6439 3.80333 32.0485 3.80333C30.7191 3.80333 29.5568 4.15479 28.5586 4.85479C27.8118 5.37979 27.2263 6.06375 26.802 6.90667L26.7309 4.20292H21.5468V27.125H26.8979V19.5796C27.1144 19.9762 27.373 20.3394 27.6782 20.669C28.2215 21.2581 28.8637 21.7146 29.6062 22.0369C30.3486 22.3577 31.1535 22.5196 32.018 22.5196C33.6148 22.5196 34.9805 22.1185 36.1225 21.3179C37.2616 20.5173 38.1218 19.4046 38.6971 17.9813C39.2725 16.5579 39.5616 14.9785 39.5616 13.176C39.5616 11.3735 39.2739 9.76063 38.6971 8.33729C38.1218 6.91396 37.2674 5.80125 36.1385 5.00063H36.1371V5.005ZM12.3019 15.9352C12.0578 16.7242 11.6699 17.3469 11.1381 17.8048C10.6063 18.2598 9.93072 18.4873 9.11127 18.4873C7.9809 18.4873 7.09898 17.9827 6.46841 16.9706C5.83639 15.9585 5.52256 14.7583 5.52256 13.1833C5.52256 11.6083 5.83348 10.3206 6.45388 9.33042C7.07428 8.34021 7.96056 7.84438 9.11272 7.84438C9.93217 7.84438 10.6092 8.06167 11.1396 8.49625C11.6713 8.93083 12.0592 9.54042 12.3033 10.3323C12.5474 11.1213 12.6695 12.0721 12.6695 13.1833C12.6695 14.2304 12.5474 15.1463 12.3033 15.9381H12.3019V15.9352ZM12.6666 6.77396C12.1769 5.81729 11.4737 5.08375 10.554 4.57188C9.63433 4.06 8.5548 3.80479 7.31401 3.80479C5.74049 3.80479 4.41107 4.20583 3.32429 5.00646C2.23895 5.80708 1.41369 6.91542 0.848506 8.32708C0.283319 9.73875 0 11.3794 0 13.1804C0 14.9815 0.283319 16.5915 0.848506 18.0031C1.41369 19.4148 2.24476 20.5217 3.34027 21.3223H3.33736C4.43432 22.1229 5.7928 22.524 7.27768 22.524C8.76257 22.524 10.0106 22.174 11.0175 21.474C11.7527 20.9606 12.3309 20.2971 12.7537 19.4833L12.8627 22.1244H18.0162V4.20729H12.6651V6.77542H12.6666V6.77396Z" fill="#101010"/>
</svg>
