<svg width="35" height="28" viewBox="0 0 35 28" fill="none" xmlns="http://www.w3.org/2000/svg">
<path fill-rule="evenodd" clip-rule="evenodd" d="M22.9547 24.71C23.6913 25.1038 24.4803 25.3181 25.3012 25.3181C29.2967 25.3181 32.5338 20.2519 32.5338 14C32.5338 7.74813 29.2953 2.68187 25.3012 2.68187C24.4788 2.68187 23.6899 2.89625 22.9547 3.29C23.3993 3.67208 23.8192 4.08625 24.2144 4.5325C26.4955 7.09187 27.7508 10.4548 27.7508 14.0015C27.7508 17.5481 26.494 20.9096 24.2144 23.4704C23.8177 23.9137 23.3964 24.3279 22.9547 24.7129V24.71ZM20.6489 5.33312C22.9881 7.39958 24.4774 10.516 24.4774 14.0015C24.4774 17.4869 22.9881 20.6019 20.6489 22.6683C19.0696 20.5931 18.0671 17.4796 18.0671 14C18.0671 10.5204 19.071 7.40833 20.6475 5.33312H20.6489ZM17.9102 24.4242C16.6665 24.9681 15.3051 25.2685 13.8754 25.2685C8.02013 25.2685 3.27198 20.2256 3.27198 14.0029C3.27198 7.78021 8.01867 2.73583 13.8754 2.73583C15.3036 2.73583 16.665 3.03479 17.9087 3.57875C17.6748 3.87917 17.4496 4.19708 17.2346 4.5325C15.5942 7.09187 14.6919 10.4548 14.6919 14.0015C14.6919 17.5481 15.5942 20.9096 17.2346 23.4704C17.451 23.8058 17.6748 24.1252 17.9116 24.4256L17.9102 24.4242ZM13.8754 28C9.81158 28 6.14005 26.3915 3.53496 23.469C1.25678 20.9081 0 17.5467 0 14C0 10.4533 1.25678 7.09042 3.53641 4.52958C6.14005 1.60854 9.81158 0 13.8754 0C16.126 0 18.256 0.494375 20.152 1.43062C21.5134 0.494375 23.0462 0 24.6648 0C27.5881 0 30.2266 1.60854 32.0994 4.53104H32.0965C33.7354 7.09042 34.6391 10.4533 34.6391 14C34.6391 17.5467 33.7383 20.9081 32.0965 23.469C30.228 26.3915 27.5852 28 24.6648 28C23.0462 28 21.5149 27.5056 20.1535 26.5679C18.2574 27.5056 16.1274 28 13.8754 28Z" fill="#7D7AE8"/>
</svg>
